<?xml version="1.0" encoding="UTF-8"?>
<svg xmlns="http://www.w3.org/2000/svg" xmlns:xlink="http://www.w3.org/1999/xlink" width="25pt" height="25pt" viewBox="0 0 25 25" version="1.1">
<g id="surface1">
<path style=" stroke:none;fill-rule:nonzero;fill:rgb(0%,0%,0%);fill-opacity:1;" d="M 4.886719 4.21875 C 4.78125 3.804688 4.363281 3.558594 3.953125 3.660156 C 3.539062 3.765625 3.289062 4.183594 3.394531 4.59375 L 8.417969 24.417969 C 8.507812 24.769531 8.820312 25 9.164062 25 C 9.226562 25 9.289062 24.992188 9.355469 24.976562 C 9.765625 24.871094 10.015625 24.453125 9.910156 24.042969 Z M 4.886719 4.21875 "/>
<path style=" stroke:none;fill-rule:nonzero;fill:rgb(0%,0%,0%);fill-opacity:1;" d="M 21.609375 9.800781 C 20.792969 6.777344 19.972656 3.753906 19.152344 0.730469 C 19.0625 0.402344 18.90625 0.0507812 18.324219 0.015625 C 13.71875 -0.316406 10.695312 4.269531 6.089844 3.9375 C 5.726562 3.890625 5.492188 4.082031 5.582031 4.40625 C 6.402344 7.429688 7.214844 10.457031 8.039062 13.476562 C 8.171875 13.964844 8.503906 14.148438 8.867188 14.191406 C 13.472656 14.523438 16.496094 9.9375 21.101562 10.273438 C 21.464844 10.316406 21.699219 10.128906 21.609375 9.800781 Z M 17.996094 1.160156 C 18.222656 1.992188 18.449219 2.828125 18.675781 3.660156 C 17.707031 3.691406 16.851562 3.886719 15.945312 4.226562 C 15.71875 3.394531 15.492188 2.558594 15.265625 1.726562 C 16.171875 1.386719 17.027344 1.191406 17.996094 1.160156 Z M 8.507812 10.511719 C 8.25 9.5625 7.992188 8.617188 7.738281 7.667969 C 8.753906 7.636719 9.660156 7.417969 10.605469 7.042969 C 10.378906 6.210938 10.152344 5.375 9.925781 4.542969 C 10.847656 4.128906 11.722656 3.632812 12.59375 3.125 C 12.820312 3.957031 13.046875 4.792969 13.273438 5.625 C 12.398438 6.136719 11.527344 6.632812 10.605469 7.042969 C 10.859375 7.992188 11.117188 8.9375 11.375 9.886719 C 10.429688 10.261719 9.523438 10.480469 8.507812 10.511719 Z M 12.0625 12.425781 C 11.832031 11.578125 11.601562 10.734375 11.375 9.886719 C 12.292969 9.476562 13.15625 8.988281 14.023438 8.480469 C 14.253906 9.328125 14.480469 10.171875 14.710938 11.019531 C 13.84375 11.527344 12.980469 12.015625 12.0625 12.425781 Z M 14.042969 8.46875 C 13.785156 7.519531 13.527344 6.574219 13.273438 5.625 C 14.144531 5.117188 15.015625 4.628906 15.945312 4.226562 C 16.203125 5.175781 16.457031 6.125 16.714844 7.070312 C 15.785156 7.472656 14.914062 7.960938 14.042969 8.46875 Z M 17.417969 9.605469 C 17.191406 8.757812 16.960938 7.910156 16.730469 7.066406 C 17.632812 6.730469 18.480469 6.535156 19.445312 6.503906 C 19.675781 7.351562 19.902344 8.199219 20.132812 9.042969 C 19.171875 9.074219 18.320312 9.269531 17.417969 9.605469 Z M 17.417969 9.605469 "/>
</g>
</svg>
