<?xml version="1.0" encoding="UTF-8"?>
<svg xmlns="http://www.w3.org/2000/svg" xmlns:xlink="http://www.w3.org/1999/xlink" width="25pt" height="25pt" viewBox="0 0 25 25" version="1.1">
<g id="surface1">
<path style=" stroke:none;fill-rule:nonzero;fill:rgb(0%,0%,0%);fill-opacity:1;" d="M 23.699219 7.1875 L 23.699219 7.160156 C 23.398438 6.621094 22.839844 6.277344 22.226562 6.25 C 22.171875 6.246094 22.113281 6.246094 22.058594 6.25 C 22.289062 5.570312 22.132812 4.820312 21.652344 4.289062 C 21.175781 3.757812 20.445312 3.523438 19.746094 3.679688 C 19.597656 3.710938 19.457031 3.761719 19.320312 3.828125 C 19.253906 2.839844 18.597656 1.992188 17.660156 1.679688 C 16.917969 1.429688 16.097656 1.554688 15.464844 2.015625 C 15.300781 2.136719 15.152344 2.273438 15.019531 2.429688 C 14.59375 1.417969 13.601562 0.757812 12.5 0.757812 C 11.398438 0.757812 10.40625 1.417969 9.980469 2.429688 C 9.847656 2.273438 9.699219 2.136719 9.535156 2.015625 C 8.953125 1.59375 8.210938 1.453125 7.511719 1.628906 C 6.816406 1.804688 6.230469 2.28125 5.917969 2.929688 C 5.78125 3.210938 5.699219 3.515625 5.679688 3.828125 C 5.542969 3.761719 5.402344 3.710938 5.253906 3.679688 C 4.554688 3.523438 3.824219 3.757812 3.347656 4.289062 C 2.867188 4.820312 2.710938 5.570312 2.941406 6.25 C 2.886719 6.246094 2.828125 6.246094 2.773438 6.25 C 2.167969 6.28125 1.617188 6.621094 1.316406 7.148438 L 1.316406 7.171875 C 1.003906 7.703125 0.988281 8.359375 1.277344 8.90625 C 1.566406 9.453125 2.117188 9.8125 2.734375 9.851562 L 2.832031 9.851562 C 3.238281 9.851562 3.632812 9.714844 3.949219 9.460938 L 8.359375 11.667969 L 9.589844 14.84375 L 8.59375 14.84375 C 7.945312 14.84375 7.421875 15.367188 7.421875 16.015625 C 7.421875 16.664062 7.945312 17.1875 8.59375 17.1875 L 10.546875 17.1875 L 10.546875 18.816406 L 9.542969 20.492188 C 9.355469 20.804688 9.324219 21.1875 9.457031 21.527344 L 10.238281 23.480469 C 10.414062 23.921875 10.835938 24.214844 11.3125 24.222656 C 11.789062 24.226562 12.21875 23.945312 12.40625 23.507812 C 12.523438 23.222656 12.523438 22.898438 12.40625 22.613281 L 11.839844 21.199219 L 12.355469 20.339844 L 12.746094 21.511719 C 12.863281 21.871094 13.148438 22.152344 13.507812 22.265625 L 15.5 22.933594 C 15.953125 23.085938 16.457031 22.945312 16.765625 22.578125 C 16.863281 22.464844 16.9375 22.332031 16.984375 22.1875 C 17.191406 21.574219 16.859375 20.910156 16.246094 20.703125 L 14.617188 20.15625 C 14.414062 20.089844 14.191406 20.199219 14.125 20.40625 C 14.054688 20.609375 14.167969 20.832031 14.371094 20.898438 L 16.015625 21.449219 C 16.21875 21.519531 16.328125 21.738281 16.261719 21.941406 C 16.246094 21.988281 16.222656 22.03125 16.191406 22.070312 C 16.089844 22.191406 15.921875 22.238281 15.769531 22.1875 L 13.773438 21.519531 C 13.65625 21.480469 13.566406 21.390625 13.527344 21.273438 L 12.847656 19.265625 C 12.792969 19.097656 12.632812 18.992188 12.457031 19 C 12.289062 19 12.144531 19.109375 12.089844 19.265625 C 12.078125 19.292969 12.066406 19.316406 12.054688 19.339844 L 11.082031 20.960938 C 11.019531 21.066406 11.007812 21.195312 11.054688 21.308594 L 11.691406 22.902344 C 11.730469 23 11.726562 23.105469 11.6875 23.203125 C 11.644531 23.296875 11.570312 23.371094 11.472656 23.410156 C 11.375 23.449219 11.269531 23.445312 11.171875 23.40625 C 11.078125 23.363281 11.003906 23.289062 10.964844 23.191406 L 10.183594 21.238281 C 10.140625 21.125 10.148438 21 10.210938 20.894531 L 11.273438 19.140625 C 11.308594 19.082031 11.328125 19.011719 11.328125 18.941406 L 11.328125 18.359375 L 13.671875 18.359375 L 13.671875 19.140625 C 13.671875 19.355469 13.847656 19.53125 14.0625 19.53125 C 14.277344 19.53125 14.453125 19.355469 14.453125 19.140625 L 14.453125 17.1875 L 16.40625 17.1875 C 17.054688 17.1875 17.578125 16.664062 17.578125 16.015625 C 17.578125 15.367188 17.054688 14.84375 16.40625 14.84375 L 15.410156 14.84375 L 16.625 11.65625 L 21.035156 9.449219 C 21.351562 9.703125 21.746094 9.839844 22.152344 9.839844 L 22.265625 9.839844 C 22.882812 9.804688 23.4375 9.457031 23.734375 8.914062 C 24.03125 8.371094 24.023438 7.710938 23.714844 7.175781 Z M 18.179688 7.578125 L 20.082031 8.527344 L 20.433594 8.882812 L 17.035156 10.582031 Z M 16.40625 10.0625 L 15.421875 7.105469 L 17.4375 7.355469 Z M 19.921875 4.460938 C 20.410156 4.351562 20.917969 4.554688 21.195312 4.972656 C 21.472656 5.390625 21.460938 5.9375 21.167969 6.34375 L 20.644531 7.078125 L 20.195312 7.703125 L 18.453125 6.835938 L 19.039062 5.226562 C 19.179688 4.835938 19.515625 4.546875 19.921875 4.460938 Z M 15.921875 2.667969 C 16.511719 2.242188 17.308594 2.253906 17.886719 2.691406 C 18.46875 3.128906 18.691406 3.894531 18.445312 4.578125 L 18.304688 4.96875 L 17.867188 6.171875 L 17.707031 6.613281 L 15.234375 6.296875 L 15.234375 4.011719 C 15.230469 3.480469 15.488281 2.976562 15.921875 2.667969 Z M 4.917969 8.527344 L 6.820312 7.578125 L 7.964844 10.582031 L 4.566406 8.882812 Z M 7.574219 7.355469 L 9.589844 7.105469 L 8.59375 10.0625 Z M 6.640625 3.289062 C 6.832031 2.886719 7.179688 2.578125 7.605469 2.441406 C 7.769531 2.382812 7.941406 2.347656 8.117188 2.34375 C 9.03125 2.351562 9.769531 3.097656 9.765625 4.011719 L 9.765625 6.296875 L 7.292969 6.605469 L 7.132812 6.164062 L 6.695312 4.960938 L 6.554688 4.570312 C 6.40625 4.148438 6.4375 3.6875 6.640625 3.289062 Z M 3.988281 4.785156 C 4.214844 4.5625 4.519531 4.433594 4.839844 4.433594 C 4.929688 4.433594 5.019531 4.441406 5.105469 4.460938 C 5.511719 4.550781 5.84375 4.847656 5.980469 5.242188 L 6.566406 6.851562 L 4.832031 7.71875 L 4.59375 7.386719 L 3.839844 6.34375 C 3.496094 5.863281 3.550781 5.203125 3.96875 4.785156 Z M 2.816406 9.082031 C 2.46875 9.066406 2.15625 8.867188 1.988281 8.5625 C 1.824219 8.257812 1.828125 7.886719 2.003906 7.585938 L 1.640625 7.382812 L 1.996094 7.550781 C 2.15625 7.246094 2.46875 7.046875 2.8125 7.03125 C 3.15625 7.007812 3.484375 7.167969 3.679688 7.449219 L 4.175781 8.144531 L 3.558594 8.78125 C 3.359375 8.984375 3.078125 9.089844 2.792969 9.070312 Z M 8.59375 16.40625 C 8.378906 16.40625 8.203125 16.230469 8.203125 16.015625 C 8.203125 15.800781 8.378906 15.625 8.59375 15.625 L 11.085938 15.625 L 10.695312 16.40625 Z M 11.328125 13.671875 C 11.328125 13.023438 11.851562 12.5 12.5 12.5 C 13.148438 12.5 13.671875 13.023438 13.671875 13.671875 C 13.671875 14.320312 13.148438 14.84375 12.5 14.84375 C 11.851562 14.84375 11.328125 14.320312 11.328125 13.671875 Z M 11.328125 17.578125 L 11.328125 16.890625 L 11.960938 15.625 L 13.039062 15.625 L 13.671875 16.890625 L 13.671875 17.578125 Z M 16.796875 16.015625 C 16.796875 16.230469 16.621094 16.40625 16.40625 16.40625 L 14.304688 16.40625 L 13.914062 15.625 L 16.40625 15.625 C 16.621094 15.625 16.796875 15.800781 16.796875 16.015625 Z M 14.0625 14.84375 C 14.316406 14.507812 14.457031 14.09375 14.453125 13.671875 C 14.453125 12.59375 13.578125 11.71875 12.5 11.71875 C 11.421875 11.71875 10.546875 12.59375 10.546875 13.671875 C 10.542969 14.09375 10.683594 14.507812 10.9375 14.84375 L 10.425781 14.84375 L 9.042969 11.214844 L 10.4375 7.03125 L 13.28125 7.03125 C 13.496094 7.03125 13.671875 6.855469 13.671875 6.640625 C 13.671875 6.425781 13.496094 6.25 13.28125 6.25 L 10.546875 6.25 L 10.546875 3.515625 C 10.546875 2.4375 11.421875 1.5625 12.5 1.5625 C 13.578125 1.5625 14.453125 2.4375 14.453125 3.515625 L 14.453125 6.640625 C 14.453125 6.683594 14.460938 6.722656 14.476562 6.761719 L 15.960938 11.210938 L 14.574219 14.84375 Z M 22.933594 8.699219 C 22.753906 8.921875 22.492188 9.054688 22.207031 9.070312 C 21.917969 9.09375 21.632812 8.988281 21.425781 8.78125 L 20.808594 8.160156 L 21.304688 7.464844 C 21.503906 7.1875 21.828125 7.03125 22.167969 7.046875 C 22.507812 7.066406 22.816406 7.253906 22.988281 7.546875 L 22.988281 7.574219 C 23.203125 7.925781 23.183594 8.371094 22.933594 8.699219 Z M 22.933594 8.699219 "/>
<path style=" stroke:none;fill-rule:nonzero;fill:rgb(0%,0%,0%);fill-opacity:1;" d="M 21.875 17.96875 C 21.457031 17.417969 20.777344 17.128906 20.089844 17.207031 C 19.402344 17.289062 18.8125 17.726562 18.53125 18.359375 C 17.945312 18.371094 17.429688 18.757812 17.253906 19.320312 C 17.082031 19.882812 17.285156 20.492188 17.761719 20.835938 C 18.238281 21.179688 18.882812 21.179688 19.359375 20.835938 C 19.648438 21.003906 19.976562 21.09375 20.3125 21.09375 C 20.527344 21.09375 20.703125 20.917969 20.703125 20.703125 C 20.703125 20.488281 20.527344 20.3125 20.3125 20.3125 C 20.039062 20.308594 19.773438 20.210938 19.566406 20.035156 C 19.484375 19.96875 19.382812 19.933594 19.277344 19.945312 C 19.171875 19.953125 19.074219 20.007812 19.007812 20.089844 C 18.835938 20.300781 18.542969 20.363281 18.300781 20.246094 C 18.058594 20.125 17.929688 19.855469 17.988281 19.59375 C 18.050781 19.328125 18.285156 19.140625 18.554688 19.140625 C 18.601562 19.136719 18.652344 19.136719 18.699219 19.140625 C 18.800781 19.167969 18.90625 19.152344 18.996094 19.097656 C 19.085938 19.042969 19.152344 18.953125 19.175781 18.851562 C 19.292969 18.386719 19.675781 18.042969 20.152344 17.976562 C 20.625 17.910156 21.089844 18.136719 21.328125 18.550781 C 21.40625 18.6875 21.5625 18.765625 21.71875 18.746094 C 21.769531 18.742188 21.824219 18.742188 21.875 18.75 C 22.304688 18.75 22.65625 19.101562 22.65625 19.53125 C 22.65625 19.960938 22.304688 20.3125 21.875 20.3125 C 21.660156 20.3125 21.484375 20.488281 21.484375 20.703125 C 21.484375 20.917969 21.660156 21.09375 21.875 21.09375 C 22.738281 21.09375 23.4375 20.394531 23.4375 19.53125 C 23.4375 18.667969 22.738281 17.96875 21.875 17.96875 Z M 21.875 17.96875 "/>
<path style=" stroke:none;fill-rule:nonzero;fill:rgb(0%,0%,0%);fill-opacity:1;" d="M 3.453125 14.59375 C 3.992188 14.9375 4.683594 14.914062 5.203125 14.542969 C 5.722656 14.167969 5.960938 13.519531 5.808594 12.898438 C 5.652344 12.277344 5.136719 11.816406 4.503906 11.726562 C 3.871094 11.640625 3.25 11.945312 2.933594 12.5 C 2.867188 12.496094 2.800781 12.496094 2.734375 12.5 C 2.085938 12.5 1.5625 13.023438 1.5625 13.671875 C 1.5625 14.320312 2.085938 14.84375 2.734375 14.84375 C 2.996094 14.84375 3.25 14.757812 3.453125 14.59375 Z M 2.34375 13.671875 C 2.34375 13.457031 2.519531 13.28125 2.734375 13.28125 C 2.808594 13.28125 2.882812 13.304688 2.945312 13.34375 C 3.050781 13.414062 3.1875 13.425781 3.304688 13.378906 C 3.421875 13.332031 3.511719 13.230469 3.539062 13.105469 C 3.632812 12.707031 4.015625 12.445312 4.417969 12.507812 C 4.824219 12.570312 5.109375 12.933594 5.078125 13.34375 C 5.046875 13.75 4.707031 14.0625 4.296875 14.0625 C 4.070312 14.058594 3.859375 13.960938 3.710938 13.789062 C 3.632812 13.710938 3.523438 13.667969 3.414062 13.671875 L 3.375 13.671875 C 3.246094 13.6875 3.136719 13.761719 3.074219 13.875 C 2.984375 14.03125 2.800781 14.105469 2.628906 14.058594 C 2.457031 14.011719 2.339844 13.851562 2.34375 13.671875 Z M 2.34375 13.671875 "/>
<path style=" stroke:none;fill-rule:nonzero;fill:rgb(0%,0%,0%);fill-opacity:1;" d="M 6.824219 18.75 C 6.550781 18.253906 6.027344 17.945312 5.457031 17.945312 C 4.886719 17.945312 4.363281 18.253906 4.089844 18.75 C 4.027344 18.746094 3.96875 18.746094 3.90625 18.75 C 3.257812 18.75 2.734375 19.273438 2.734375 19.921875 C 2.734375 20.570312 3.257812 21.09375 3.90625 21.09375 C 4.167969 21.09375 4.421875 21.007812 4.625 20.84375 C 5.066406 21.125 5.621094 21.167969 6.101562 20.960938 C 6.511719 21.152344 6.996094 21.09375 7.347656 20.804688 C 7.695312 20.515625 7.847656 20.050781 7.734375 19.613281 C 7.625 19.171875 7.269531 18.835938 6.824219 18.75 Z M 6.640625 20.3125 C 6.546875 20.3125 6.453125 20.273438 6.382812 20.210938 C 6.3125 20.148438 6.21875 20.113281 6.125 20.113281 C 6.046875 20.113281 5.972656 20.136719 5.90625 20.179688 C 5.578125 20.398438 5.140625 20.335938 4.882812 20.039062 C 4.800781 19.941406 4.671875 19.894531 4.546875 19.90625 C 4.417969 19.921875 4.308594 19.996094 4.246094 20.109375 C 4.15625 20.277344 3.953125 20.355469 3.773438 20.289062 C 3.59375 20.226562 3.484375 20.042969 3.519531 19.855469 C 3.550781 19.667969 3.714844 19.53125 3.90625 19.53125 C 3.980469 19.53125 4.054688 19.554688 4.117188 19.59375 C 4.222656 19.664062 4.359375 19.675781 4.476562 19.628906 C 4.59375 19.582031 4.683594 19.480469 4.710938 19.355469 C 4.792969 19.023438 5.085938 18.78125 5.429688 18.765625 C 5.769531 18.746094 6.085938 18.953125 6.203125 19.277344 C 6.261719 19.441406 6.421875 19.546875 6.59375 19.535156 L 6.640625 19.535156 C 6.855469 19.535156 7.03125 19.710938 7.03125 19.925781 C 7.03125 20.140625 6.855469 20.316406 6.640625 20.316406 Z M 6.640625 20.3125 "/>
</g>
</svg>
