<?xml version="1.0" encoding="UTF-8"?>
<svg xmlns="http://www.w3.org/2000/svg" xmlns:xlink="http://www.w3.org/1999/xlink" width="25pt" height="25pt" viewBox="0 0 25 25" version="1.1">
<g id="surface1">
<path style=" stroke:none;fill-rule:nonzero;fill:rgb(0%,0%,0%);fill-opacity:1;" d="M 10.082031 5.632812 C 9.296875 5.601562 8.507812 5.554688 7.726562 5.488281 C 7.523438 5.472656 7.34375 5.625 7.324219 5.828125 C 7.308594 6.035156 7.460938 6.214844 7.664062 6.230469 C 7.945312 6.253906 8.226562 6.273438 8.507812 6.292969 L 8.507812 9.15625 C 8.507812 9.359375 8.675781 9.527344 8.878906 9.527344 C 9.085938 9.527344 9.25 9.359375 9.25 9.15625 L 9.25 6.335938 C 9.519531 6.351562 9.785156 6.367188 10.050781 6.375 C 10.054688 6.375 10.058594 6.375 10.066406 6.375 C 10.261719 6.375 10.429688 6.21875 10.4375 6.019531 C 10.445312 5.816406 10.285156 5.644531 10.082031 5.632812 Z M 10.082031 5.632812 "/>
<path style=" stroke:none;fill-rule:nonzero;fill:rgb(0%,0%,0%);fill-opacity:1;" d="M 20.769531 5.472656 C 20.742188 5.269531 20.554688 5.128906 20.351562 5.15625 C 19.574219 5.261719 18.785156 5.351562 18.003906 5.425781 C 17.800781 5.445312 17.648438 5.625 17.667969 5.828125 C 17.6875 6.023438 17.847656 6.167969 18.039062 6.167969 C 18.050781 6.167969 18.0625 6.164062 18.074219 6.164062 C 18.332031 6.140625 18.589844 6.113281 18.847656 6.085938 L 18.847656 8.882812 C 18.847656 9.085938 19.015625 9.253906 19.21875 9.253906 C 19.425781 9.253906 19.589844 9.085938 19.589844 8.882812 L 19.589844 6 C 19.878906 5.964844 20.164062 5.929688 20.449219 5.890625 C 20.652344 5.863281 20.796875 5.675781 20.769531 5.472656 Z M 20.769531 5.472656 "/>
<path style=" stroke:none;fill-rule:nonzero;fill:rgb(0%,0%,0%);fill-opacity:1;" d="M 16.8125 6.855469 L 16.8125 6.746094 C 16.8125 6.425781 16.6875 6.128906 16.460938 5.914062 C 16.230469 5.695312 15.925781 5.585938 15.597656 5.601562 C 15.292969 5.617188 14.980469 5.632812 14.671875 5.644531 C 14.472656 5.652344 14.316406 5.816406 14.316406 6.015625 L 14.316406 9.226562 C 14.316406 9.429688 14.480469 9.597656 14.6875 9.597656 C 14.890625 9.597656 15.058594 9.429688 15.058594 9.226562 L 15.058594 8.128906 C 15.328125 8.128906 15.578125 8.226562 15.769531 8.410156 C 15.964844 8.597656 16.070312 8.855469 16.070312 9.132812 C 16.070312 9.339844 16.238281 9.503906 16.441406 9.503906 C 16.648438 9.503906 16.8125 9.339844 16.8125 9.132812 C 16.8125 8.648438 16.625 8.203125 16.28125 7.871094 C 16.601562 7.644531 16.8125 7.269531 16.8125 6.855469 Z M 16.070312 6.855469 C 16.070312 7.113281 15.855469 7.34375 15.597656 7.355469 C 15.421875 7.367188 15.238281 7.375 15.058594 7.382812 L 15.058594 6.371094 C 15.25 6.363281 15.445312 6.355469 15.640625 6.34375 C 15.757812 6.335938 15.867188 6.375 15.949219 6.453125 C 16.027344 6.527344 16.070312 6.632812 16.070312 6.746094 Z M 16.070312 6.855469 "/>
<path style=" stroke:none;fill-rule:nonzero;fill:rgb(0%,0%,0%);fill-opacity:1;" d="M 12.175781 5.683594 C 11.847656 5.683594 11.539062 5.808594 11.304688 6.039062 C 11.078125 6.265625 10.949219 6.570312 10.949219 6.898438 L 10.949219 9.253906 C 10.949219 9.460938 11.117188 9.625 11.320312 9.625 C 11.527344 9.625 11.691406 9.460938 11.691406 9.253906 L 11.691406 8.144531 C 11.960938 8.148438 12.230469 8.152344 12.5 8.152344 C 12.554688 8.152344 12.605469 8.152344 12.660156 8.152344 L 12.660156 9.265625 C 12.660156 9.46875 12.824219 9.636719 13.03125 9.636719 C 13.234375 9.636719 13.402344 9.46875 13.402344 9.265625 L 13.402344 6.90625 C 13.402344 6.234375 12.851562 5.6875 12.175781 5.683594 Z M 12.660156 7.410156 C 12.335938 7.410156 12.015625 7.40625 11.691406 7.402344 L 11.691406 6.898438 C 11.691406 6.769531 11.742188 6.652344 11.828125 6.566406 C 11.921875 6.476562 12.042969 6.425781 12.171875 6.425781 C 12.441406 6.429688 12.660156 6.644531 12.660156 6.90625 Z M 12.660156 7.410156 "/>
<path style=" stroke:none;fill-rule:nonzero;fill:rgb(0%,0%,0%);fill-opacity:1;" d="M 5.542969 6.875 L 5.445312 6.863281 C 5.191406 6.832031 4.972656 6.582031 4.972656 6.324219 C 4.972656 6.21875 5.007812 6.132812 5.078125 6.070312 C 5.148438 6.007812 5.246094 5.980469 5.355469 5.996094 C 5.65625 6.03125 5.960938 6.066406 6.261719 6.097656 C 6.464844 6.121094 6.648438 5.972656 6.667969 5.769531 C 6.691406 5.5625 6.542969 5.382812 6.339844 5.359375 C 6.042969 5.328125 5.742188 5.292969 5.445312 5.257812 C 5.121094 5.21875 4.816406 5.308594 4.585938 5.515625 C 4.355469 5.71875 4.230469 6.007812 4.230469 6.328125 C 4.230469 6.964844 4.722656 7.523438 5.355469 7.601562 L 5.453125 7.613281 C 5.710938 7.644531 5.929688 7.882812 5.929688 8.136719 C 5.929688 8.242188 5.890625 8.339844 5.816406 8.402344 C 5.746094 8.464844 5.648438 8.492188 5.542969 8.480469 C 5.246094 8.445312 4.945312 8.40625 4.648438 8.367188 C 4.445312 8.339844 4.257812 8.480469 4.230469 8.683594 C 4.203125 8.886719 4.347656 9.074219 4.550781 9.101562 C 4.851562 9.140625 5.15625 9.179688 5.453125 9.21875 C 5.503906 9.222656 5.550781 9.226562 5.597656 9.226562 C 5.863281 9.226562 6.113281 9.132812 6.308594 8.957031 C 6.539062 8.753906 6.671875 8.453125 6.671875 8.136719 C 6.671875 7.503906 6.175781 6.949219 5.542969 6.875 Z M 5.542969 6.875 "/>
<path style=" stroke:none;fill-rule:nonzero;fill:rgb(0%,0%,0%);fill-opacity:1;" d="M 24.871094 2.550781 C 24.789062 2.480469 24.683594 2.449219 24.578125 2.464844 C 17.71875 3.441406 10.75 3.582031 3.859375 2.882812 C 3.65625 2.863281 3.476562 3.011719 3.453125 3.214844 C 3.433594 3.417969 3.582031 3.601562 3.785156 3.621094 C 10.59375 4.3125 17.476562 4.1875 24.257812 3.257812 L 24.257812 10.398438 C 16.453125 11.480469 8.546875 11.480469 0.742188 10.398438 L 0.742188 3.257812 C 1.3125 3.335938 1.890625 3.410156 2.460938 3.476562 C 2.664062 3.5 2.847656 3.355469 2.871094 3.152344 C 2.894531 2.949219 2.75 2.761719 2.546875 2.738281 C 1.839844 2.65625 1.125 2.566406 0.421875 2.464844 C 0.316406 2.449219 0.210938 2.480469 0.128906 2.550781 C 0.046875 2.621094 0 2.722656 0 2.832031 L 0 10.722656 C 0 10.90625 0.136719 11.0625 0.320312 11.089844 C 0.589844 11.128906 0.863281 11.164062 1.136719 11.203125 L 1.136719 22.167969 C 1.136719 22.375 1.304688 22.539062 1.507812 22.539062 L 2.996094 22.539062 C 3.199219 22.539062 3.367188 22.375 3.367188 22.167969 L 3.367188 11.46875 C 6.402344 11.789062 9.453125 11.953125 12.5 11.953125 C 15.546875 11.953125 18.597656 11.789062 21.632812 11.46875 L 21.632812 14.769531 C 21.632812 14.972656 21.800781 15.140625 22.003906 15.140625 C 22.210938 15.140625 22.375 14.972656 22.375 14.769531 L 22.375 11.386719 C 22.625 11.355469 22.871094 11.328125 23.121094 11.296875 L 23.121094 21.796875 L 22.375 21.796875 L 22.375 16.007812 C 22.375 15.800781 22.210938 15.636719 22.003906 15.636719 C 21.800781 15.636719 21.632812 15.800781 21.632812 16.007812 L 21.632812 22.167969 C 21.632812 22.375 21.800781 22.539062 22.003906 22.539062 L 23.492188 22.539062 C 23.695312 22.539062 23.863281 22.375 23.863281 22.167969 L 23.863281 11.203125 C 24.136719 11.164062 24.40625 11.128906 24.679688 11.089844 C 24.863281 11.0625 25 10.90625 25 10.722656 L 25 2.832031 C 25 2.722656 24.953125 2.621094 24.871094 2.550781 Z M 2.625 21.796875 L 1.878906 21.796875 L 1.878906 11.296875 C 2.128906 11.328125 2.375 11.355469 2.625 11.386719 Z M 2.625 21.796875 "/>
</g>
</svg>
